# xmcd
#
# Track frame offsets: 
#        150
#        21054
#        42042
#        61378
#        84349
#        106953
#        126417
#        151015
#        170700
#        194573
#        214207
#        234421
#        251094
#
# Disc length: 3635 seconds
#
# Revision: 2
# Processed by: cddbd v1.5.2PL0 Copyright (c) Steve Scherf et al.
# Submitted via: ExactAudioCopyFreeDBPlugin 1.0
#
DISCID=ad0e310d
DTITLE=Đàm Vĩnh Hưng - Hạnh Phúc Cuối
DYEAR=2008
DGENRE=Vietnamese
TTITLE0=Đành thôi người ơi
TTITLE1=Nuối tiếc muộn màng
TTITLE2=Nhớ
TTITLE3=Phố vắng em
TTITLE4=Người đàn ông không tình yêu
TTITLE5=Vẫn như ngày đầu
TTITLE6=Hạnh phúc cuối
TTITLE7=Ngày đó tôi yêu em
TTITLE8=Nếu ngày đó
TTITLE9=Hạnh phúc nửa vời
TTITLE10=Muộn
TTITLE11=Đừng sợ
TTITLE12=Nửa vầng trăng (remix)
EXTD=
EXTT0=
EXTT1=
EXTT2=
EXTT3=
EXTT4=
EXTT5=
EXTT6=
EXTT7=
EXTT8=
EXTT9=
EXTT10=
EXTT11=
EXTT12=
PLAYORDER=
